<svg xmlns="http://www.w3.org/2000/svg" width="22" height="19" viewBox="0 0 22 19"><defs><mask id="ezvsb" width="2" height="2" x="-1" y="-1"><path fill="#fff" d="M0 0h22v19H0z"/><path d="M1.981 6.814h5.66a1.13 1.13 0 0 1 1.132 1.13v9.037a1.13 1.13 0 0 1-1.132 1.129h-5.66A1.13 1.13 0 0 1 .85 16.98V7.944c0-.624.507-1.13 1.132-1.13zm0 3.39h1.132v-2.26H1.98zm2.264 0h1.132v-2.26H4.245zm2.264 0h1.132v-2.26H6.51zm-4.528 3.388h1.132v-2.26H1.98zm2.264 0h1.132v-2.26H4.245zm2.264 0h1.132v-2.26H6.51zM1.981 16.98h1.132v-2.258H1.98zm4.528 0h1.132v-2.258H6.51zM11.038.036h8.986c.625 0 1.202.506 1.202 1.13v15.815s-.436 1.129-1.061 1.129h-9.127s-1.133-.505-1.133-1.129V1.167c0-.625.507-1.13 1.133-1.13zm0 6.778h2.264v-2.26h-2.264zm0 3.39h2.264v-2.26h-2.264zm0 3.388h2.264v-2.26h-2.264zm0 3.388h2.264v-2.258h-2.264zM17.83 6.814h2.264v-2.26H17.83zm0 3.39h2.264v-2.26H17.83zm0 3.388h2.264v-2.26H17.83zm0 3.388h2.264v-2.258H17.83zM11.038 3.425h2.264v-2.26h-2.264zm6.792 0h2.264v-2.26H17.83zm-3.396 3.39h2.264v-2.26h-2.264zm0 3.388h2.264v-2.26h-2.264zm0 3.39h2.264v-2.26h-2.264zm0-10.168h2.264v-2.26h-2.264z"/></mask><filter id="ezvsa" width="42.7" height="39.7" x="-10" y="-10" filterUnits="userSpaceOnUse"><feOffset dx=".7" dy=".7" in="SourceGraphic" result="FeOffset1197Out"/><feGaussianBlur in="FeOffset1197Out" result="FeGaussianBlur1198Out" stdDeviation="0 0"/></filter></defs><g><g><g filter="url(#ezvsa)"><path fill="none" d="M1.981 6.814h5.66a1.13 1.13 0 0 1 1.132 1.13v9.037a1.13 1.13 0 0 1-1.132 1.129h-5.66A1.13 1.13 0 0 1 .85 16.98V7.944c0-.624.507-1.13 1.132-1.13zm0 3.39h1.132v-2.26H1.98zm2.264 0h1.132v-2.26H4.245zm2.264 0h1.132v-2.26H6.51zm-4.528 3.388h1.132v-2.26H1.98zm2.264 0h1.132v-2.26H4.245zm2.264 0h1.132v-2.26H6.51zM1.981 16.98h1.132v-2.258H1.98zm4.528 0h1.132v-2.258H6.51zM11.038.036h8.986c.625 0 1.202.506 1.202 1.13v15.815s-.436 1.129-1.061 1.129h-9.127s-1.133-.505-1.133-1.129V1.167c0-.625.507-1.13 1.133-1.13zm0 6.778h2.264v-2.26h-2.264zm0 3.39h2.264v-2.26h-2.264zm0 3.388h2.264v-2.26h-2.264zm0 3.388h2.264v-2.258h-2.264zM17.83 6.814h2.264v-2.26H17.83zm0 3.39h2.264v-2.26H17.83zm0 3.388h2.264v-2.26H17.83zm0 3.388h2.264v-2.258H17.83zM11.038 3.425h2.264v-2.26h-2.264zm6.792 0h2.264v-2.26H17.83zm-3.396 3.39h2.264v-2.26h-2.264zm0 3.388h2.264v-2.26h-2.264zm0 3.39h2.264v-2.26h-2.264zm0-10.168h2.264v-2.26h-2.264z" mask="url(&quot;#ezvsb&quot;)"/><path fill-opacity=".25" d="M1.981 6.814h5.66a1.13 1.13 0 0 1 1.132 1.13v9.037a1.13 1.13 0 0 1-1.132 1.129h-5.66A1.13 1.13 0 0 1 .85 16.98V7.944c0-.624.507-1.13 1.132-1.13zm0 3.39h1.132v-2.26H1.98zm2.264 0h1.132v-2.26H4.245zm2.264 0h1.132v-2.26H6.51zm-4.528 3.388h1.132v-2.26H1.98zm2.264 0h1.132v-2.26H4.245zm2.264 0h1.132v-2.26H6.51zM1.981 16.98h1.132v-2.258H1.98zm4.528 0h1.132v-2.258H6.51zM11.038.036h8.986c.625 0 1.202.506 1.202 1.13v15.815s-.436 1.129-1.061 1.129h-9.127s-1.133-.505-1.133-1.129V1.167c0-.625.507-1.13 1.133-1.13zm0 6.778h2.264v-2.26h-2.264zm0 3.39h2.264v-2.26h-2.264zm0 3.388h2.264v-2.26h-2.264zm0 3.388h2.264v-2.258h-2.264zM17.83 6.814h2.264v-2.26H17.83zm0 3.39h2.264v-2.26H17.83zm0 3.388h2.264v-2.26H17.83zm0 3.388h2.264v-2.258H17.83zM11.038 3.425h2.264v-2.26h-2.264zm6.792 0h2.264v-2.26H17.83zm-3.396 3.39h2.264v-2.26h-2.264zm0 3.388h2.264v-2.26h-2.264zm0 3.39h2.264v-2.26h-2.264zm0-10.168h2.264v-2.26h-2.264z"/></g><path fill="#614261" d="M1.981 6.814h5.66a1.13 1.13 0 0 1 1.132 1.13v9.037a1.13 1.13 0 0 1-1.132 1.129h-5.66A1.13 1.13 0 0 1 .85 16.98V7.944c0-.624.507-1.13 1.132-1.13zm0 3.39h1.132v-2.26H1.98zm2.264 0h1.132v-2.26H4.245zm2.264 0h1.132v-2.26H6.51zm-4.528 3.388h1.132v-2.26H1.98zm2.264 0h1.132v-2.26H4.245zm2.264 0h1.132v-2.26H6.51zM1.981 16.98h1.132v-2.258H1.98zm4.528 0h1.132v-2.258H6.51zM11.038.036h8.986c.625 0 1.202.506 1.202 1.13v15.815s-.436 1.129-1.061 1.129h-9.127s-1.133-.505-1.133-1.129V1.167c0-.625.507-1.13 1.133-1.13zm0 6.778h2.264v-2.26h-2.264zm0 3.39h2.264v-2.26h-2.264zm0 3.388h2.264v-2.26h-2.264zm0 3.388h2.264v-2.258h-2.264zM17.83 6.814h2.264v-2.26H17.83zm0 3.39h2.264v-2.26H17.83zm0 3.388h2.264v-2.26H17.83zm0 3.388h2.264v-2.258H17.83zM11.038 3.425h2.264v-2.26h-2.264zm6.792 0h2.264v-2.26H17.83zm-3.396 3.39h2.264v-2.26h-2.264zm0 3.388h2.264v-2.26h-2.264zm0 3.39h2.264v-2.26h-2.264zm0-10.168h2.264v-2.26h-2.264z"/><path fill="#fff" d="M1.981 6.814h5.66a1.13 1.13 0 0 1 1.132 1.13v9.037a1.13 1.13 0 0 1-1.132 1.129h-5.66A1.13 1.13 0 0 1 .85 16.98V7.944c0-.624.507-1.13 1.132-1.13zm0 3.39h1.132v-2.26H1.98zm2.264 0h1.132v-2.26H4.245zm2.264 0h1.132v-2.26H6.51zm-4.528 3.388h1.132v-2.26H1.98zm2.264 0h1.132v-2.26H4.245zm2.264 0h1.132v-2.26H6.51zM1.981 16.98h1.132v-2.258H1.98zm4.528 0h1.132v-2.258H6.51zM11.038.036h8.986c.625 0 1.202.506 1.202 1.13v15.815s-.436 1.129-1.061 1.129h-9.127s-1.133-.505-1.133-1.129V1.167c0-.625.507-1.13 1.133-1.13zm0 6.778h2.264v-2.26h-2.264zm0 3.39h2.264v-2.26h-2.264zm0 3.388h2.264v-2.26h-2.264zm0 3.388h2.264v-2.258h-2.264zM17.83 6.814h2.264v-2.26H17.83zm0 3.39h2.264v-2.26H17.83zm0 3.388h2.264v-2.26H17.83zm0 3.388h2.264v-2.258H17.83zM11.038 3.425h2.264v-2.26h-2.264zm6.792 0h2.264v-2.26H17.83zm-3.396 3.39h2.264v-2.26h-2.264zm0 3.388h2.264v-2.26h-2.264zm0 3.39h2.264v-2.26h-2.264zm0-10.168h2.264v-2.26h-2.264z"/></g></g></svg>