<svg xmlns="http://www.w3.org/2000/svg" width="32" height="32" viewBox="0 0 32 32"><g><g><path fill="#0d0d0d" d="M31.91 12.589c-.649 2.105-1.758 3.922-3.387 5.551-1.917 1.916-4.256 3.275-6.519 4.59-2.134 1.238-4.15 2.408-5.697 3.955-1.16 1.158-1.942 2.435-2.396 3.904a2.002 2.002 0 0 1-1.43 1.352c-.68.168-1.4-.032-1.896-.528l-10-10a2.002 2.002 0 0 1-.496-2.005c.65-2.106 1.76-3.92 3.388-5.55 1.917-1.917 4.256-3.277 6.52-4.59 2.133-1.237 4.149-2.41 5.697-3.956 1.158-1.158 1.941-2.436 2.395-3.904a2.003 2.003 0 0 1 1.43-1.35c.68-.168 1.4.031 1.896.527l10 10c.524.524.714 1.295.496 2.004zm-1.91-.59c-3.312-3.312-6.688-6.69-10-10-2.841 9.202-15.159 8.799-18 18l10 10c2.841-9.2 15.159-8.801 18-18zm-9.843 3.67c.113.283.154.596.119.941a3.5 3.5 0 0 1-.319 1.1c-.177.383-.417.77-.716 1.137.175.156.351.305.527.445a.34.34 0 0 1 .125.245.382.382 0 0 1-.094.292.358.358 0 0 1-.27.14.361.361 0 0 1-.273-.087c-.174-.156-.35-.319-.525-.488-.361.363-.729.607-1.1.742a2.494 2.494 0 0 1-1.95-.065 2.037 2.037 0 0 1-.66-.478c-.167-.19-.253-.38-.253-.566a.64.64 0 0 1 .246-.496c.16-.137.305-.204.442-.201.136.001.27.036.398.1.13.065.262.144.394.235.133.09.278.16.434.21.156.046.328.05.522.009.193-.04.412-.16.662-.37a68.065 68.065 0 0 1-1.774-1.99c-.742.398-1.433.59-2.074.629-.643.038-1.197-.128-1.668-.518-.289-.241-.486-.495-.594-.794a2.11 2.11 0 0 1-.105-.967c.037-.348.137-.705.305-1.066.166-.36.376-.701.632-1.01-.065-.057-.13-.111-.195-.166a.354.354 0 0 1-.127-.252.356.356 0 0 1 .092-.285.35.35 0 0 1 .273-.133.373.373 0 0 1 .27.1c.065.06.13.12.195.184.17-.168.399-.341.684-.508a3.16 3.16 0 0 1 .902-.36c.32-.07.629-.074.93-.021.304.054.558.2.77.443.163.188.238.379.228.576a.668.668 0 0 1-.237.483.537.537 0 0 1-.472.12 15.103 15.103 0 0 1-.582-.134 2.245 2.245 0 0 0-.652-.067c-.227.008-.461.12-.704.339a56.14 56.14 0 0 1 1.612 1.792c.34-.163.678-.306 1.013-.437a3.54 3.54 0 0 1 1-.229c.332-.023.66.014.989.106.33.091.658.277.984.55.285.237.484.483.596.77zm-5.186-.427a35.234 35.234 0 0 0-1.52-1.629c-.14.152-.25.31-.324.468a1.32 1.32 0 0 0-.136.465 1.01 1.01 0 0 0 .039.418c.039.127.103.235.195.322a.97.97 0 0 0 .746.291c.283-.012.617-.124 1-.335zm3.897 1.838a1.21 1.21 0 0 0-.014-.49.913.913 0 0 0-.266-.444 1.007 1.007 0 0 0-.459-.267 1.254 1.254 0 0 0-.494-.022 2.152 2.152 0 0 0-.486.14c-.162.069-.313.135-.455.2.56.638 1.12 1.26 1.68 1.826a2.1 2.1 0 0 0 .314-.444 1.63 1.63 0 0 0 .18-.5zm-3.482 5.132a.501.501 0 0 1 0 .71c-.015.015-.033.026-.05.04l.001.002c-.632.48-1.153.914-1.714 1.475a13.613 13.613 0 0 0-1.36 1.58l-.64.875a.476.476 0 0 1-.074.1.503.503 0 0 1-.776-.628l-.002-.002.684-.933a14.57 14.57 0 0 1 1.46-1.7 18.124 18.124 0 0 1 1.8-1.552h.002a.502.502 0 0 1 .67.033zm4.35-16.078l.666-.91a.565.565 0 0 1 .087-.124.504.504 0 0 1 .738.684l.002.003-.684.936a14.542 14.542 0 0 1-1.46 1.698 18.33 18.33 0 0 1-1.8 1.553l-.002-.002a.505.505 0 1 1-.582-.815c.587-.449 1.154-.92 1.676-1.442.506-.506.964-1.038 1.36-1.581z"/></g></g></svg>