<svg xmlns="http://www.w3.org/2000/svg" width="28" height="32" viewBox="0 0 28 32"><g><g><path fill="#fff" d="M28 6.999v3a2 2 0 0 1-2 2h-1.034c0 .075.03.145.021.22l-2 18A2 2 0 0 1 21 32H7a2 2 0 0 1-1.987-1.78l-2-18c-.01-.075.021-.145.021-.22H2a2 2 0 0 1-2-2V7C0 5.938.834 5.09 1.878 5.023l1.224-3.658A2 2 0 0 1 5 0h18a2 2 0 0 1 1.898 1.366l1.214 3.657c1.05.061 1.888.912 1.888 1.977zm-24-2h20l-1-3H5zm17 25l.333-3H6.667L7 30zm1.556-14H5.444l1.112 10h14.888zM23 12H5l.333 3h17.334zm3-5H2v3h24z"/></g></g></svg>