<svg xmlns="http://www.w3.org/2000/svg" width="20" height="20" viewBox="0 0 20 20"><g><g clip-path="url(#clip-1239)"><path fill="#fff" d="M.65.648h18.7v18.7H.65zm5.1 8.5h8.5v-6.8h-8.5zm0 8.5h8.5V10.85h-8.5zm10.2-13.6h1.7v-1.7h-1.7zm0 2.551h1.7V4.9h-1.7zm0 2.55h1.7v-1.7h-1.7zm0 3.399h1.7v-1.699h-1.7zm0 2.55h1.7V13.4h-1.7zm0 2.55h1.7v-1.7h-1.7zm-13.6-13.6h1.7v-1.7h-1.7zm0 2.551h1.7V4.9h-1.7zm0 2.55h1.7v-1.7h-1.7zm0 3.399h1.7v-1.699h-1.7zm0 2.55h1.7V13.4h-1.7zm0 2.55h1.7v-1.7h-1.7z"/></g></g></svg>