<svg xmlns="http://www.w3.org/2000/svg" width="23" height="22" viewBox="0 0 23 22"><g><g clip-path="url(#clip-1260)"><path fill="#f7f7f7" d="M18.725 21.198v-1.7h-.022c.009-.142.022-.282.022-.425v-9.35a7.226 7.226 0 1 0-14.45 0v9.35c0 .143.013.283.021.425h-.021v1.7s-4.25-.07-4.25-4.675c0-2.61 1.366-3.762 2.55-4.271V9.723A8.924 8.924 0 0 1 11.5.8a8.924 8.924 0 0 1 8.925 8.924v2.529c1.183.509 2.55 1.66 2.55 4.271 0 4.604-4.25 4.675-4.25 4.675zm-12.75 0h-.85v-9.35h.85zm11.9 0h-.85v-9.35h.85z"/></g></g></svg>