<svg xmlns="http://www.w3.org/2000/svg" width="32" height="32" viewBox="0 0 32 32"><g><g><path fill="#fff" d="M28.407 11.458c.47.468.733 1.097.733 1.768 0 .67-.263 1.3-.739 1.773l-1.408 1.407c-.47.474-1.1.733-1.767.733a2.48 2.48 0 0 1-1.369-.406l-5.341 13.375a2.986 2.986 0 0 1-2.788 1.89h-.076a2.974 2.974 0 0 1-2.045-.877L.887 18.541a3 3 0 0 1 .907-4.876l13.577-5.439A2.485 2.485 0 0 1 15 6.914c0-.67.261-1.298.734-1.77l1.411-1.411a2.481 2.481 0 0 1 1.77-.734c.666 0 1.294.26 1.766.733zm-7.02 6.07c-4.191-4.471-8.381-3.13-12.57-4.523l-6.218 2.492a1 1 0 0 0-.306 1.623l12.728 12.587a.993.993 0 0 0 .911.271.999.999 0 0 0 .726-.612zm5.605-4.656l-7.724-7.726a.498.498 0 0 0-.708 0l-1.413 1.415a.5.5 0 0 0 0 .707l1.715 1.714-8.492 3.402c.846.183 1.705.296 2.592.405 2.76.34 5.82.717 8.83 3.723l-.12.303 1.432-3.59 1.768 1.768a.498.498 0 0 0 .707 0l1.413-1.414a.498.498 0 0 0 0-.707zM14 18.5c0-1.38 1.122-2.5 2.5-2.5s2.5 1.12 2.5 2.5c0 1.379-1.122 2.499-2.5 2.499s-2.5-1.12-2.5-2.5zm1 0a1.5 1.5 0 1 0 3 0 1.5 1.5 0 0 0-3 0zm17-16C32 3.877 30.878 5 29.5 5A2.503 2.503 0 0 1 27 2.5C27 1.12 28.122 0 29.5 0S32 1.12 32 2.5zm-1 0a1.5 1.5 0 1 0-2.999-.001 1.5 1.5 0 0 0 2.999 0zM10 14.998c1.103 0 2 .897 2 2s-.897 2-2 2-2-.897-2-2 .897-2 2-2zm-1 2a1 1 0 1 0 2 0 1 1 0 0 0-2 0zm3 6a1 1 0 1 1 1.998-.001A1 1 0 0 1 12 23zM30 8A1 1 0 1 1 28.002 8 1 1 0 0 1 30 8z"/></g></g></svg>