<svg xmlns="http://www.w3.org/2000/svg" width="32" height="32" viewBox="0 0 32 32"><g><g><path fill="#fff" d="M32 13.905c0 .288-.006.369-.014.501l-.011.209c-.029.74-.287 1.54-.854 2.175.38.706.524 1.55.39 2.374-.218 1.325-.734 2.194-1.337 2.765.261.64.375 1.535-.001 2.726-.226.726-.571 1.843-1.645 2.58.17.657.117 1.303-.023 1.76a7.046 7.046 0 0 1-.429 1.076C27.361 31.36 26.161 32 24.494 32h-5.466c-2.782 0-5.465-.572-5.973-.688-2.37-.544-3.479-.81-4.055-.952-.019-.006-.028-.008-.046-.012l-.24-.063a.223.223 0 0 1-.046-.011C8.185 31.28 7.19 31.999 6 31.999H3c-1.654 0-3-1.345-3-3V13c0-1.654 1.346-3 3-3h3c.722 0 1.426.323 1.947.755.103-.046.807-.393 1.053-.523 3.355-1.763 3.978-5.241 4-7.255.02-1.642 1.367-2.977 3-2.977 2.312 0 4.926 3.16 4.926 6.749 0 1.5-.046 2.347-.25 3.285 4.299.113 7.239.11 8.488.438 1.962.56 2.836 2.17 2.836 3.434zm-25-.906a1 1 0 0 0-1-1H3a1 1 0 0 0-1 1v16a1 1 0 0 0 1 1h3a1 1 0 0 0 1-1zm23 .906c0-.313-.094-1.219-1.188-1.532-.882-.231-.812-.375-10.812-.375.831-2.471.926-2.88.926-5.25 0-2.627-1.868-4.75-2.926-4.75-.625 0-.994.522-1 1-.041 3.407-1.432 7.555-6 9.447-.06.025-.145.051-.206.075-.495.15-.794.573-.794 1.042l.008 13.813c0 .738.845.88.845.88.261.074.48.148 4.634 1.106.07.015 2.794.638 5.541.638h5.466c1.031 0 1.518-.328 1.82-.873.007-.013.155-.314.28-.72.114-.372.062-1.406-1.032-1.406h-1.568a.5.5 0 0 1 0-1.001h1.632c2.126 0 2.321-.935 2.64-1.945.243-.768.39-2.055-1.297-2.055h-1.97a.5.5 0 0 1 0-1h2.377c1.688 0 2.039-1.41 2.161-2.156.098-.6-.1-1.845-1.6-1.845H26a.5.5 0 1 1 0-1h2c1.75 0 1.957-.97 1.978-1.465.012-.336.022-.286.022-.628zM6 27.499a1.5 1.5 0 1 1-3.001 0 1.5 1.5 0 0 1 3.001 0zm-1 0a.5.5 0 0 0-1 0 .501.501 0 0 0 1 0z"/></g></g></svg>