<svg xmlns="http://www.w3.org/2000/svg" width="32" height="32" viewBox="0 0 32 32"><g><g><path fill="#0d0d0d" d="M10 10c0 1.63-.792 3.064-2 3.976v15.023c0 1.655-1.346 3-3 3s-3-1.345-3-3V13.976C.792 13.064 0 11.63 0 10 0 8.369.792 6.934 2 6.02V3c0-1.655 1.346-3 3-3s3 1.345 3 3V6.02c1.208.913 2 2.348 2 3.979zM4 5.099a5.134 5.134 0 0 1 2 0v-2.1a1 1 0 1 0-2 0zm2 9.798A4.903 4.903 0 0 1 5 15c-.343 0-.677-.034-1-.102V29a.999.999 0 1 0 2 0zM8 10c0-.296-.055-.574-.135-.842a2.991 2.991 0 0 0-.427-.894c-.003-.007-.01-.011-.013-.016a3.028 3.028 0 0 0-.616-.627c-.004-.003-.007-.007-.01-.008a3.06 3.06 0 0 0-.8-.43A2.972 2.972 0 0 0 5 6.999c-.353 0-.686.072-1 .184-.29.104-.558.25-.799.43-.003.001-.006.005-.01.008-.235.177-.442.39-.616.627-.004.005-.01.009-.014.015a2.995 2.995 0 0 0-.377.738c-.019.051-.034.103-.05.157C2.055 9.426 2 9.704 2 10c0 .293.055.571.135.838a2.945 2.945 0 0 0 .427.895c.003.006.01.01.013.016.174.239.381.45.616.627l.01.008c.241.182.51.327.799.43.314.113.647.185 1 .185.352 0 .685-.072 1-.185a2.97 2.97 0 0 0 .799-.43l.01-.008a2.99 2.99 0 0 0 .616-.627c.004-.006.01-.01.013-.016a2.94 2.94 0 0 0 .378-.736c.019-.052.034-.105.05-.159.08-.267.134-.545.134-.838zm24 0c0 1.63-.792 3.064-2 3.976v15.023c0 1.655-1.346 3-3 3s-3-1.345-3-3V13.976c-1.208-.912-2-2.346-2-3.976 0-1.631.792-3.066 2-3.979V3c0-1.655 1.346-3 3-3s3 1.345 3 3V6.02c1.208.913 2 2.348 2 3.979zm-6-4.901a5.132 5.132 0 0 1 2 0v-2.1a1 1 0 1 0-2 0zm2 9.798A4.903 4.903 0 0 1 27 15c-.343 0-.677-.034-1-.102V29a.999.999 0 1 0 2 0zM30 10c0-.296-.055-.574-.135-.842a3 3 0 0 0-.427-.894c-.003-.007-.01-.011-.013-.016a3.028 3.028 0 0 0-.616-.627c-.004-.003-.007-.007-.01-.008a3.061 3.061 0 0 0-.799-.43 2.972 2.972 0 0 0-1-.184 2.97 2.97 0 0 0-1 .184 3.06 3.06 0 0 0-.799.43c-.003.001-.006.005-.01.008-.235.177-.442.39-.616.627-.004.005-.01.009-.014.015a2.991 2.991 0 0 0-.377.738c-.02.051-.034.103-.05.157-.08.268-.134.546-.134.842 0 .293.055.571.135.838a2.94 2.94 0 0 0 .427.895c.003.006.01.01.013.016.174.239.381.45.616.627l.01.008c.241.182.51.327.799.43.314.113.647.185 1 .185.352 0 .685-.072 1-.185.29-.103.558-.248.799-.43l.01-.008a2.99 2.99 0 0 0 .616-.627l.014-.016c.16-.222.283-.472.377-.736.019-.052.034-.105.05-.159.08-.267.134-.545.134-.838zm-9 12c0 1.63-.792 3.064-2 3.976v3.023c0 1.655-1.346 3-3 3s-3-1.345-3-3v-3.023c-1.208-.912-2-2.345-2-3.976 0-1.631.792-3.066 2-3.98V3c0-1.655 1.346-3 3-3s3 1.345 3 3v15.02c1.208.914 2 2.349 2 3.98zm-6-4.901c.323-.064.657-.1 1-.1.343 0 .677.036 1 .1v-14.1a1 1 0 1 0-2 0zm2 9.799a4.959 4.959 0 0 1-2 0v2.101a.999.999 0 1 0 2 0zM19 22c0-.296-.055-.575-.135-.843-.015-.052-.03-.106-.049-.156a3.014 3.014 0 0 0-.377-.738c-.004-.006-.01-.01-.014-.015a3.028 3.028 0 0 0-.616-.627l-.01-.008a3.061 3.061 0 0 0-.799-.43 2.99 2.99 0 0 0-1-.184 2.99 2.99 0 0 0-1 .184 3.06 3.06 0 0 0-.799.43l-.01.008c-.235.177-.442.39-.616.627l-.014.015a3.014 3.014 0 0 0-.377.738c-.019.05-.034.104-.05.156-.08.268-.134.547-.134.843 0 .292.055.571.135.84a2.945 2.945 0 0 0 .427.894c.003.005.01.01.013.015A3.009 3.009 0 0 0 15 24.813c.314.114.647.186 1 .186.352 0 .685-.072 1-.186a2.97 2.97 0 0 0 .809-.437 3.01 3.01 0 0 0 .616-.627l.014-.015c.16-.223.283-.472.377-.737.019-.053.034-.104.05-.158.08-.268.134-.547.134-.84z"/></g></g></svg>