<svg xmlns="http://www.w3.org/2000/svg" width="18" height="18" viewBox="0 0 18 18"><g><g><path fill="gray" d="M16.9 7.42l-8.547 8.614a2.253 2.253 0 0 1-.955.57l-4.747 1.248c-.016.001-.433.105-.648.105a1.961 1.961 0 0 1-1.963-1.96c0-.19.086-.565.087-.579l1.316-4.763c.107-.36.3-.69.567-.956l5.785-5.828-.002-.002c.005-.004.008-.01.012-.014.008-.01.018-.014.026-.022l2.726-2.746C11.234.41 12.163.037 13.17.037c1.196 0 2.409.524 3.33 1.444 1.779 1.775 1.954 4.382.399 5.94zm-7.887 6.36l4.328-4.362-.007-.008c.004-.004.01-.007.014-.012.71-.708.876-1.777.552-2.8L8.606 11.89c.213.47.356.965.402 1.471.013.142.006.278.005.418zm4.656-7.745a3.86 3.86 0 0 0-1.892-1.796L6.44 9.576c.41.226.803.493 1.145.837.294.293.532.624.74.967zm-2.48-2c-.947-.236-1.91-.05-2.57.595L4.307 8.976a4.449 4.449 0 0 1 1.606.336zM4.457 16.22c.028-.648-.23-1.35-.78-1.9-.542-.542-1.23-.791-1.87-.772l-.59 2.135c-.013.06-.05.222-.057.315 0 .46.373.835.834.84.129-.009.319-.059.38-.072zm2.622-.69c.07-.022.136-.054.2-.088.979-1.109.782-2.968-.487-4.237-1.2-1.201-2.928-1.439-4.051-.635a1.12 1.12 0 0 0-.219.384l-.558 2.02c.762.03 1.526.366 2.109.952.617.614.923 1.397.936 2.149zm9.754-10.922c-.056-.838-.455-1.666-1.123-2.333-.712-.71-1.637-1.118-2.539-1.118-.708 0-1.356.257-1.82.722l-.927.933c1.198.004 2.408.528 3.32 1.441.82.819 1.326 1.866 1.424 2.95.011.13-.004.251-.004.377l.944-.951c.52-.52.778-1.238.725-2.021z"/></g></g></svg>