<svg xmlns="http://www.w3.org/2000/svg" width="71" height="58" viewBox="0 0 71 58"><g><g clip-path="url(#clip-869)"><path fill="#fff" d="M66.102 57.998H4.895C2.191 57.998 0 55.834 0 53.164V14.497c0-2.669 2.192-4.832 4.896-4.832H19.74s-.153-.29-.153-3.626 2.74-6.041 6.12-6.041h19.587c3.38 0 6.12 2.705 6.12 6.041 0 3.336.153 3.626.153 3.626h14.536c2.704 0 4.897 2.163 4.897 4.832v38.667c0 2.67-2.193 4.834-4.897 4.834zM35.61 48.265c8.113 0 14.69-6.49 14.69-14.498 0-8.01-6.577-14.5-14.69-14.5s-14.69 6.49-14.69 14.5c0 8.007 6.577 14.498 14.69 14.498z"/></g></g></svg>