<svg xmlns="http://www.w3.org/2000/svg" width="24" height="21" viewBox="0 0 24 21"><g><g clip-path="url(#clip-1109)"><path fill="#fff" d="M22.2 20.274H4.35a1.7 1.7 0 0 1-1.7-1.7H20.5a1.7 1.7 0 0 0 1.7-1.7v-13.6a1.7 1.7 0 0 1 1.7 1.7v13.6a1.7 1.7 0 0 1-1.7 1.7zm-2.55-2.55H1.8a1.7 1.7 0 0 1-1.7-1.7v-13.6c0-.94.761-1.7 1.7-1.7h17.85c.939 0 1.7.76 1.7 1.7v13.6a1.7 1.7 0 0 1-1.7 1.7zm0-15.3H1.8v13.6h17.85zM6.602 12.822l2.54-4.338 2.541 2.704 3.494-5.555 3.652 9.558H2.632l2.064-4.36zM5.2 4.974a1.699 1.699 0 1 1 .002 3.398A1.699 1.699 0 0 1 5.2 4.974z"/></g></g></svg>