<svg xmlns="http://www.w3.org/2000/svg" width="32" height="28" viewBox="0 0 32 28"><g><g><path fill="#f39c12" d="M32 16.999v7a4 4 0 0 1-4 4H4a4 4 0 0 1-4-4v-7c0-.178.025-.362.076-.545L4.078 1.449A2.005 2.005 0 0 1 6-.001h20c.89 0 1.68.597 1.922 1.45l4.002 15.005c.05.183.076.367.076.545zm-2 0L25.999 1.997H6.001L2 17v7c0 1.102.897 2 2 2h24c1.102 0 2-.898 2-2zM24.709 4.743l3.445 11.999a1.002 1.002 0 0 1-.967 1.256H22.62l-1.447 2.896a1.999 1.999 0 0 1-1.79 1.104h-6.765c-.758 0-1.45-.426-1.789-1.104l-1.447-2.896H4.812c-.31 0-.603-.144-.793-.39a1.004 1.004 0 0 1-.173-.866L7.29 4.743A1 1 0 0 1 8.258 4h15.484a1 1 0 0 1 .967.743zm1.957 11.256l-2.924-11H8.258l-2.924 11H9.38a1.99 1.99 0 0 1 1.789 1.105l1.447 2.895h6.766l1.447-2.895a1.99 1.99 0 0 1 1.789-1.105z"/></g></g></svg>