<svg xmlns="http://www.w3.org/2000/svg" width="28" height="27" viewBox="0 0 28 27"><g><g><path fill="#0d0d0d" d="M27.042 12.09l-5.187 5.179 1.203 7.183a1.895 1.895 0 0 1-.806 1.873 2.007 2.007 0 0 1-2.081.111L14 23.114l-6.17 3.322a2.004 2.004 0 0 1-2.082-.111 1.893 1.893 0 0 1-.806-1.873l1.203-7.183-5.187-5.18a1.875 1.875 0 0 1-.456-1.942 1.955 1.955 0 0 1 1.565-1.284l7.078-1.052 3.077-6.387A1.97 1.97 0 0 1 14 .324c.762 0 1.455.43 1.778 1.1l3.077 6.387 7.077 1.052a1.957 1.957 0 0 1 1.567 1.284c.233.68.057 1.43-.457 1.943zm-1.406-1.336l-7.078-1.053a1.962 1.962 0 0 1-1.481-1.078L14 2.238l-3.077 6.385a1.963 1.963 0 0 1-1.481 1.078l-7.078 1.053 5.187 5.179c.435.435.632 1.044.532 1.643l-1.204 7.185 6.171-3.321a2.013 2.013 0 0 1 1.9 0l6.17 3.32-1.203-7.184c-.1-.599.098-1.208.532-1.643z"/></g></g></svg>