<svg xmlns="http://www.w3.org/2000/svg" width="32" height="32" viewBox="0 0 32 32"><g><g><path fill="#fff" d="M31.914 30.578A2 2 0 0 1 30 31.999H2a2 2 0 0 1-1.11-3.664c.2-.133 3.848-2.525 9.273-3.699-1.99-2.523-3.267-5.913-3.81-8.17-.753-3.128-.461-9.248 2.542-13.061C10.651 1.177 13.108-.001 16-.001c2.892 0 5.349 1.178 7.104 3.406 3.004 3.813 3.296 9.933 2.543 13.062-.543 2.256-1.82 5.647-3.81 8.17 5.425 1.173 9.072 3.565 9.272 3.698.734.488 1.06 1.4.805 2.243zm-8.075-19.83c-.546-4.28-2.998-8.75-7.839-8.75-4.84 0-7.293 4.47-7.839 8.75-.595 4.453.787 9.12 3.572 12.65l.327.414c2.385 2.74 5.495 2.74 7.88 0l.326-.415c2.788-3.53 4.165-8.194 3.573-12.649zM29.999 30c-.189-.126-3.564-2.322-8.585-3.408l-2.484-.538c-.886.583-1.86.947-2.93.947s-2.044-.364-2.93-.947l-2.484.538C5.526 27.685 2.138 29.907 2 30z"/></g></g></svg>