<svg xmlns="http://www.w3.org/2000/svg" width="18" height="18" viewBox="0 0 18 18"><g><g><path fill="#f39c12" d="M17.275 16.577a1.04 1.04 0 0 1-.995.739H1.72a1.04 1.04 0 0 1-.577-1.905c.104-.069 2-1.314 4.822-1.923-1.035-1.312-1.7-3.076-1.982-4.248-.391-1.627-.24-4.81 1.323-6.792C6.219 1.29 7.496.677 9 .677s2.781.613 3.694 1.771c1.562 1.983 1.714 5.165 1.323 6.792-.283 1.172-.947 2.936-1.982 4.248 2.821.61 4.718 1.854 4.822 1.923.381.254.551.73.418 1.166zM13.076 6.266C12.792 4.04 11.517 1.716 9 1.716c-2.517 0-3.792 2.325-4.076 4.55-.31 2.316.409 4.742 1.857 6.577l.17.216c1.24 1.425 2.857 1.425 4.097 0l.17-.216c1.45-1.836 2.166-4.261 1.858-6.577zm3.204 10.012c-.099-.066-1.854-1.21-4.465-1.772l-1.292-.282c-.46.303-.967.492-1.523.492-.557 0-1.063-.189-1.524-.492l-1.291.282c-2.631.567-4.394 1.723-4.465 1.772z"/></g></g></svg>