<svg xmlns="http://www.w3.org/2000/svg" width="29" height="29" viewBox="0 0 29 29"><g><g><path fill="#0d0d0d" d="M28.45 14.5c0 7.704-6.246 13.95-13.95 13.95C6.796 28.45.55 22.203.55 14.5.55 6.794 6.796.55 14.5.55c7.704 0 13.95 6.245 13.95 13.95zM23.56 6.43a14.784 14.784 0 0 1-3.362 1.977c.63 1.743.983 3.648 1.033 5.64h5.396a12.078 12.078 0 0 0-3.067-7.617zm-9.51 20.195v-5.353c-1.29.04-2.538.242-3.716.61.918 1.878 2.173 3.495 3.669 4.74.015.002.031.002.047.003zm.9-24.254v6.255c1.42-.046 2.784-.3 4.066-.74-.937-2.206-2.322-4.099-4.02-5.512l-.046-.003zm4.909 5.207a13.836 13.836 0 0 0 3.084-1.798 12.108 12.108 0 0 0-6.448-3.253C17.89 3.92 19.04 5.637 19.86 7.579zm-5.856-5.204c-1.697 1.413-3.082 3.306-4.019 5.513 1.282.44 2.647.693 4.066.739V2.372l-.047.003zm-1.498.153A12.108 12.108 0 0 0 6.057 5.78a13.836 13.836 0 0 0 3.084 1.798c.82-1.942 1.969-3.658 3.364-5.051zm-3.836 11.52h5.38V9.527a14.76 14.76 0 0 1-4.404-.809 17.021 17.021 0 0 0-.976 5.332zm0 .902c.057 2.19.516 4.259 1.296 6.114a14.795 14.795 0 0 1 4.085-.692V14.95zm.814 7.243a13.761 13.761 0 0 0-2.869 1.531 12.091 12.091 0 0 0 5.89 2.747 15.582 15.582 0 0 1-3.02-4.278zm5.514 4.43c1.496-1.245 2.75-2.862 3.669-4.74a13.912 13.912 0 0 0-3.716-.61v5.353l.047-.002zm1.498-.152a12.092 12.092 0 0 0 5.89-2.747 13.759 13.759 0 0 0-2.868-1.53 15.582 15.582 0 0 1-3.022 4.277zm3.836-11.521H14.95v5.422c1.42.043 2.791.276 4.085.692a16.89 16.89 0 0 0 1.296-6.114zm0-.901a17.021 17.021 0 0 0-.976-5.332 14.76 14.76 0 0 1-4.405.81v4.522zm-17.958 0h5.396a17.91 17.91 0 0 1 1.033-5.64A14.782 14.782 0 0 1 5.44 6.43a12.078 12.078 0 0 0-3.067 7.618zm3.565 9.06c.98-.699 2.044-1.292 3.184-1.736a17.762 17.762 0 0 1-1.353-6.423H2.373a12.109 12.109 0 0 0 3.565 8.16zm20.69-8.16H21.23a17.76 17.76 0 0 1-1.353 6.424 14.648 14.648 0 0 1 3.184 1.737 12.109 12.109 0 0 0 3.565-8.16z"/></g></g></svg>